<?xml version="1.0" standalone="no"?>
<!DOCTYPE svg PUBLIC "-//W3C//DTD SVG 20010904//EN"
 "http://www.w3.org/TR/2001/REC-SVG-20010904/DTD/svg10.dtd">
<svg version="1.0" xmlns="http://www.w3.org/2000/svg"
 width="1080.000000pt" height="1080.000000pt" viewBox="0 0 1080.000000 1080.000000"
 preserveAspectRatio="xMidYMid meet">
<metadata>
Created by potrace 1.16, written by Peter Selinger 2001-2019
</metadata>
<g transform="translate(0.000000,1080.000000) scale(0.100000,-0.100000)"
fill="#8C52FF" stroke="none">
<path d="M4105 8169 c-704 -263 -1873 -701 -2598 -971 -724 -271 -1317 -495
-1317 -498 0 -3 379 -147 843 -320 l842 -314 -5 -331 -5 -331 -44 -39 c-97
-87 -109 -216 -30 -317 l29 -37 0 -235 c0 -203 2 -236 15 -236 10 0 15 -10 15
-26 0 -15 -48 -513 -106 -1107 -58 -594 -102 -1092 -99 -1106 10 -39 77 -97
142 -121 88 -34 239 -39 330 -12 83 26 148 70 170 117 16 33 12 80 -86 1102
-56 587 -104 1087 -108 1111 -5 38 -3 42 16 42 21 0 21 2 21 244 0 215 2 245
17 257 29 24 53 91 53 150 0 73 -38 151 -91 186 l-39 26 0 293 c0 162 2 294 4
294 5 0 1165 -433 2573 -959 l753 -282 1332 499 c733 274 1906 712 2605 973
700 261 1273 476 1273 479 0 4 -663 253 -3045 1142 -396 148 -1045 390 -1441
538 -397 149 -725 270 -730 269 -5 0 -585 -216 -1289 -480z"/>
<path d="M2740 5003 c0 -280 5 -556 10 -615 42 -439 357 -826 905 -1109 410
-213 892 -340 1434 -380 214 -16 641 -6 836 20 988 128 1743 542 2020 1106
102 208 99 179 103 879 3 582 2 608 -15 601 -10 -4 -606 -227 -1326 -496
l-1308 -490 -1324 495 c-728 273 -1327 496 -1330 496 -3 0 -5 -228 -5 -507z"/>
</g>
</svg>
